<mxfile host="drawio-plugin" modified="2021-09-01T14:17:28.104Z" agent="5.0 (Windows NT 6.2; Win64; x64) AppleWebKit/537.36 (KHTML, like Gecko) Chrome/87.0.4280.141 Safari/537.36" etag="KoasaZzNp8GilGe3mLBf" version="14.7.4" type="embed"><diagram id="R2lEEEUBdFMjLlhIrx00" name="Page-1"><mxGraphModel dx="1914" dy="1103" grid="1" gridSize="10" guides="1" tooltips="1" connect="1" arrows="1" fold="1" page="1" pageScale="1" pageWidth="850" pageHeight="1100" math="0" shadow="0" extFonts="Permanent Marker^https://fonts.googleapis.com/css?family=Permanent+Marker"><root><mxCell id="0"/><mxCell id="1" parent="0"/><mxCell id="g_2z3JfJZCTQJ3qX_mrf-18" value="Department" style="shape=table;startSize=30;container=1;collapsible=1;childLayout=tableLayout;fixedRows=1;rowLines=0;fontStyle=1;align=center;resizeLast=1;" parent="1" vertex="1"><mxGeometry x="125" y="10" width="180" height="160" as="geometry"/></mxCell><mxCell id="g_2z3JfJZCTQJ3qX_mrf-19" value="" style="shape=partialRectangle;collapsible=0;dropTarget=0;pointerEvents=0;fillColor=none;top=0;left=0;bottom=1;right=0;points=[[0,0.5],[1,0.5]];portConstraint=eastwest;" parent="g_2z3JfJZCTQJ3qX_mrf-18" vertex="1"><mxGeometry y="30" width="180" height="30" as="geometry"/></mxCell><mxCell id="g_2z3JfJZCTQJ3qX_mrf-20" value="PK" style="shape=partialRectangle;connectable=0;fillColor=none;top=0;left=0;bottom=0;right=0;fontStyle=1;overflow=hidden;" parent="g_2z3JfJZCTQJ3qX_mrf-19" vertex="1"><mxGeometry width="30" height="30" as="geometry"/></mxCell><mxCell id="g_2z3JfJZCTQJ3qX_mrf-21" value="department_id" style="shape=partialRectangle;connectable=0;fillColor=none;top=0;left=0;bottom=0;right=0;align=left;spacingLeft=6;fontStyle=5;overflow=hidden;" parent="g_2z3JfJZCTQJ3qX_mrf-19" vertex="1"><mxGeometry x="30" width="150" height="30" as="geometry"/></mxCell><mxCell id="g_2z3JfJZCTQJ3qX_mrf-22" value="" style="shape=partialRectangle;collapsible=0;dropTarget=0;pointerEvents=0;fillColor=none;top=0;left=0;bottom=0;right=0;points=[[0,0.5],[1,0.5]];portConstraint=eastwest;" parent="g_2z3JfJZCTQJ3qX_mrf-18" vertex="1"><mxGeometry y="60" width="180" height="30" as="geometry"/></mxCell><mxCell id="g_2z3JfJZCTQJ3qX_mrf-23" value="" style="shape=partialRectangle;connectable=0;fillColor=none;top=0;left=0;bottom=0;right=0;editable=1;overflow=hidden;" parent="g_2z3JfJZCTQJ3qX_mrf-22" vertex="1"><mxGeometry width="30" height="30" as="geometry"/></mxCell><mxCell id="g_2z3JfJZCTQJ3qX_mrf-24" value="department_name" style="shape=partialRectangle;connectable=0;fillColor=none;top=0;left=0;bottom=0;right=0;align=left;spacingLeft=6;overflow=hidden;" parent="g_2z3JfJZCTQJ3qX_mrf-22" vertex="1"><mxGeometry x="30" width="150" height="30" as="geometry"/></mxCell><mxCell id="g_2z3JfJZCTQJ3qX_mrf-25" value="" style="shape=partialRectangle;collapsible=0;dropTarget=0;pointerEvents=0;fillColor=none;top=0;left=0;bottom=0;right=0;points=[[0,0.5],[1,0.5]];portConstraint=eastwest;" parent="g_2z3JfJZCTQJ3qX_mrf-18" vertex="1"><mxGeometry y="90" width="180" height="30" as="geometry"/></mxCell><mxCell id="g_2z3JfJZCTQJ3qX_mrf-26" value="" style="shape=partialRectangle;connectable=0;fillColor=none;top=0;left=0;bottom=0;right=0;editable=1;overflow=hidden;" parent="g_2z3JfJZCTQJ3qX_mrf-25" vertex="1"><mxGeometry width="30" height="30" as="geometry"/></mxCell><mxCell id="g_2z3JfJZCTQJ3qX_mrf-27" value="department_address" style="shape=partialRectangle;connectable=0;fillColor=none;top=0;left=0;bottom=0;right=0;align=left;spacingLeft=6;overflow=hidden;" parent="g_2z3JfJZCTQJ3qX_mrf-25" vertex="1"><mxGeometry x="30" width="150" height="30" as="geometry"/></mxCell><mxCell id="g_2z3JfJZCTQJ3qX_mrf-28" value="" style="shape=partialRectangle;collapsible=0;dropTarget=0;pointerEvents=0;fillColor=none;top=0;left=0;bottom=0;right=0;points=[[0,0.5],[1,0.5]];portConstraint=eastwest;" parent="g_2z3JfJZCTQJ3qX_mrf-18" vertex="1"><mxGeometry y="120" width="180" height="30" as="geometry"/></mxCell><mxCell id="g_2z3JfJZCTQJ3qX_mrf-29" value="" style="shape=partialRectangle;connectable=0;fillColor=none;top=0;left=0;bottom=0;right=0;editable=1;overflow=hidden;" parent="g_2z3JfJZCTQJ3qX_mrf-28" vertex="1"><mxGeometry width="30" height="30" as="geometry"/></mxCell><mxCell id="g_2z3JfJZCTQJ3qX_mrf-30" value="" style="shape=partialRectangle;connectable=0;fillColor=none;top=0;left=0;bottom=0;right=0;align=left;spacingLeft=6;overflow=hidden;" parent="g_2z3JfJZCTQJ3qX_mrf-28" vertex="1"><mxGeometry x="30" width="150" height="30" as="geometry"/></mxCell><mxCell id="g_2z3JfJZCTQJ3qX_mrf-31" value="Programme" style="shape=table;startSize=30;container=1;collapsible=1;childLayout=tableLayout;fixedRows=1;rowLines=0;fontStyle=1;align=center;resizeLast=1;" parent="1" vertex="1"><mxGeometry x="125" y="230" width="180" height="160" as="geometry"/></mxCell><mxCell id="g_2z3JfJZCTQJ3qX_mrf-32" value="" style="shape=partialRectangle;collapsible=0;dropTarget=0;pointerEvents=0;fillColor=none;top=0;left=0;bottom=1;right=0;points=[[0,0.5],[1,0.5]];portConstraint=eastwest;" parent="g_2z3JfJZCTQJ3qX_mrf-31" vertex="1"><mxGeometry y="30" width="180" height="30" as="geometry"/></mxCell><mxCell id="g_2z3JfJZCTQJ3qX_mrf-33" value="PK" style="shape=partialRectangle;connectable=0;fillColor=none;top=0;left=0;bottom=0;right=0;fontStyle=1;overflow=hidden;" parent="g_2z3JfJZCTQJ3qX_mrf-32" vertex="1"><mxGeometry width="30" height="30" as="geometry"/></mxCell><mxCell id="g_2z3JfJZCTQJ3qX_mrf-34" value="programme_id" style="shape=partialRectangle;connectable=0;fillColor=none;top=0;left=0;bottom=0;right=0;align=left;spacingLeft=6;fontStyle=5;overflow=hidden;" parent="g_2z3JfJZCTQJ3qX_mrf-32" vertex="1"><mxGeometry x="30" width="150" height="30" as="geometry"/></mxCell><mxCell id="g_2z3JfJZCTQJ3qX_mrf-35" value="" style="shape=partialRectangle;collapsible=0;dropTarget=0;pointerEvents=0;fillColor=none;top=0;left=0;bottom=0;right=0;points=[[0,0.5],[1,0.5]];portConstraint=eastwest;" parent="g_2z3JfJZCTQJ3qX_mrf-31" vertex="1"><mxGeometry y="60" width="180" height="30" as="geometry"/></mxCell><mxCell id="g_2z3JfJZCTQJ3qX_mrf-36" value="FK" style="shape=partialRectangle;connectable=0;fillColor=none;top=0;left=0;bottom=0;right=0;editable=1;overflow=hidden;" parent="g_2z3JfJZCTQJ3qX_mrf-35" vertex="1"><mxGeometry width="30" height="30" as="geometry"/></mxCell><mxCell id="g_2z3JfJZCTQJ3qX_mrf-37" value="department_id" style="shape=partialRectangle;connectable=0;fillColor=none;top=0;left=0;bottom=0;right=0;align=left;spacingLeft=6;overflow=hidden;" parent="g_2z3JfJZCTQJ3qX_mrf-35" vertex="1"><mxGeometry x="30" width="150" height="30" as="geometry"/></mxCell><mxCell id="g_2z3JfJZCTQJ3qX_mrf-38" value="" style="shape=partialRectangle;collapsible=0;dropTarget=0;pointerEvents=0;fillColor=none;top=0;left=0;bottom=0;right=0;points=[[0,0.5],[1,0.5]];portConstraint=eastwest;" parent="g_2z3JfJZCTQJ3qX_mrf-31" vertex="1"><mxGeometry y="90" width="180" height="30" as="geometry"/></mxCell><mxCell id="g_2z3JfJZCTQJ3qX_mrf-39" value="" style="shape=partialRectangle;connectable=0;fillColor=none;top=0;left=0;bottom=0;right=0;editable=1;overflow=hidden;" parent="g_2z3JfJZCTQJ3qX_mrf-38" vertex="1"><mxGeometry width="30" height="30" as="geometry"/></mxCell><mxCell id="g_2z3JfJZCTQJ3qX_mrf-40" value="programme_name" style="shape=partialRectangle;connectable=0;fillColor=none;top=0;left=0;bottom=0;right=0;align=left;spacingLeft=6;overflow=hidden;" parent="g_2z3JfJZCTQJ3qX_mrf-38" vertex="1"><mxGeometry x="30" width="150" height="30" as="geometry"/></mxCell><mxCell id="g_2z3JfJZCTQJ3qX_mrf-41" value="" style="shape=partialRectangle;collapsible=0;dropTarget=0;pointerEvents=0;fillColor=none;top=0;left=0;bottom=0;right=0;points=[[0,0.5],[1,0.5]];portConstraint=eastwest;" parent="g_2z3JfJZCTQJ3qX_mrf-31" vertex="1"><mxGeometry y="120" width="180" height="30" as="geometry"/></mxCell><mxCell id="g_2z3JfJZCTQJ3qX_mrf-42" value="" style="shape=partialRectangle;connectable=0;fillColor=none;top=0;left=0;bottom=0;right=0;editable=1;overflow=hidden;" parent="g_2z3JfJZCTQJ3qX_mrf-41" vertex="1"><mxGeometry width="30" height="30" as="geometry"/></mxCell><mxCell id="g_2z3JfJZCTQJ3qX_mrf-43" value="" style="shape=partialRectangle;connectable=0;fillColor=none;top=0;left=0;bottom=0;right=0;align=left;spacingLeft=6;overflow=hidden;" parent="g_2z3JfJZCTQJ3qX_mrf-41" vertex="1"><mxGeometry x="30" width="150" height="30" as="geometry"/></mxCell><mxCell id="g_2z3JfJZCTQJ3qX_mrf-46" value="Class" style="shape=table;startSize=30;container=1;collapsible=1;childLayout=tableLayout;fixedRows=1;rowLines=0;fontStyle=1;align=center;resizeLast=1;" parent="1" vertex="1"><mxGeometry x="125" y="470" width="180" height="200" as="geometry"/></mxCell><mxCell id="g_2z3JfJZCTQJ3qX_mrf-47" value="" style="shape=partialRectangle;collapsible=0;dropTarget=0;pointerEvents=0;fillColor=none;top=0;left=0;bottom=1;right=0;points=[[0,0.5],[1,0.5]];portConstraint=eastwest;" parent="g_2z3JfJZCTQJ3qX_mrf-46" vertex="1"><mxGeometry y="30" width="180" height="30" as="geometry"/></mxCell><mxCell id="g_2z3JfJZCTQJ3qX_mrf-48" value="PK" style="shape=partialRectangle;connectable=0;fillColor=none;top=0;left=0;bottom=0;right=0;fontStyle=1;overflow=hidden;" parent="g_2z3JfJZCTQJ3qX_mrf-47" vertex="1"><mxGeometry width="30" height="30" as="geometry"/></mxCell><mxCell id="g_2z3JfJZCTQJ3qX_mrf-49" value="class_id" style="shape=partialRectangle;connectable=0;fillColor=none;top=0;left=0;bottom=0;right=0;align=left;spacingLeft=6;fontStyle=5;overflow=hidden;" parent="g_2z3JfJZCTQJ3qX_mrf-47" vertex="1"><mxGeometry x="30" width="150" height="30" as="geometry"/></mxCell><mxCell id="g_2z3JfJZCTQJ3qX_mrf-50" value="" style="shape=partialRectangle;collapsible=0;dropTarget=0;pointerEvents=0;fillColor=none;top=0;left=0;bottom=0;right=0;points=[[0,0.5],[1,0.5]];portConstraint=eastwest;" parent="g_2z3JfJZCTQJ3qX_mrf-46" vertex="1"><mxGeometry y="60" width="180" height="30" as="geometry"/></mxCell><mxCell id="g_2z3JfJZCTQJ3qX_mrf-51" value="FK" style="shape=partialRectangle;connectable=0;fillColor=none;top=0;left=0;bottom=0;right=0;editable=1;overflow=hidden;" parent="g_2z3JfJZCTQJ3qX_mrf-50" vertex="1"><mxGeometry width="30" height="30" as="geometry"/></mxCell><mxCell id="g_2z3JfJZCTQJ3qX_mrf-52" value="programme_id" style="shape=partialRectangle;connectable=0;fillColor=none;top=0;left=0;bottom=0;right=0;align=left;spacingLeft=6;overflow=hidden;" parent="g_2z3JfJZCTQJ3qX_mrf-50" vertex="1"><mxGeometry x="30" width="150" height="30" as="geometry"/></mxCell><mxCell id="g_2z3JfJZCTQJ3qX_mrf-53" value="" style="shape=partialRectangle;collapsible=0;dropTarget=0;pointerEvents=0;fillColor=none;top=0;left=0;bottom=0;right=0;points=[[0,0.5],[1,0.5]];portConstraint=eastwest;" parent="g_2z3JfJZCTQJ3qX_mrf-46" vertex="1"><mxGeometry y="90" width="180" height="30" as="geometry"/></mxCell><mxCell id="g_2z3JfJZCTQJ3qX_mrf-54" value="" style="shape=partialRectangle;connectable=0;fillColor=none;top=0;left=0;bottom=0;right=0;editable=1;overflow=hidden;" parent="g_2z3JfJZCTQJ3qX_mrf-53" vertex="1"><mxGeometry width="30" height="30" as="geometry"/></mxCell><mxCell id="g_2z3JfJZCTQJ3qX_mrf-55" value="class_name" style="shape=partialRectangle;connectable=0;fillColor=none;top=0;left=0;bottom=0;right=0;align=left;spacingLeft=6;overflow=hidden;" parent="g_2z3JfJZCTQJ3qX_mrf-53" vertex="1"><mxGeometry x="30" width="150" height="30" as="geometry"/></mxCell><mxCell id="g_2z3JfJZCTQJ3qX_mrf-56" value="" style="shape=partialRectangle;collapsible=0;dropTarget=0;pointerEvents=0;fillColor=none;top=0;left=0;bottom=0;right=0;points=[[0,0.5],[1,0.5]];portConstraint=eastwest;" parent="g_2z3JfJZCTQJ3qX_mrf-46" vertex="1"><mxGeometry y="120" width="180" height="30" as="geometry"/></mxCell><mxCell id="g_2z3JfJZCTQJ3qX_mrf-57" value="" style="shape=partialRectangle;connectable=0;fillColor=none;top=0;left=0;bottom=0;right=0;editable=1;overflow=hidden;" parent="g_2z3JfJZCTQJ3qX_mrf-56" vertex="1"><mxGeometry width="30" height="30" as="geometry"/></mxCell><mxCell id="g_2z3JfJZCTQJ3qX_mrf-58" value="total_students" style="shape=partialRectangle;connectable=0;fillColor=none;top=0;left=0;bottom=0;right=0;align=left;spacingLeft=6;overflow=hidden;" parent="g_2z3JfJZCTQJ3qX_mrf-56" vertex="1"><mxGeometry x="30" width="150" height="30" as="geometry"/></mxCell><mxCell id="g_2z3JfJZCTQJ3qX_mrf-65" value="" style="shape=partialRectangle;overflow=hidden;connectable=0;fillColor=none;top=0;left=0;bottom=0;right=0;align=left;spacingLeft=6;" parent="1" vertex="1"><mxGeometry x="150" y="950" width="220" height="30" as="geometry"/></mxCell><mxCell id="g_2z3JfJZCTQJ3qX_mrf-68" value="" style="edgeStyle=entityRelationEdgeStyle;fontSize=12;html=1;endArrow=ERoneToMany;" parent="1" edge="1"><mxGeometry width="100" height="100" relative="1" as="geometry"><mxPoint x="305" y="100" as="sourcePoint"/><mxPoint x="120" y="300" as="targetPoint"/></mxGeometry></mxCell><mxCell id="g_2z3JfJZCTQJ3qX_mrf-69" value="" style="edgeStyle=entityRelationEdgeStyle;fontSize=12;html=1;endArrow=ERoneToMany;exitX=0.991;exitY=0.063;exitDx=0;exitDy=0;exitPerimeter=0;" parent="1" source="g_2z3JfJZCTQJ3qX_mrf-38" edge="1"><mxGeometry width="100" height="100" relative="1" as="geometry"><mxPoint x="490" y="540" as="sourcePoint"/><mxPoint x="120" y="540" as="targetPoint"/></mxGeometry></mxCell><mxCell id="g_2z3JfJZCTQJ3qX_mrf-168" value="Teacher_Classes" style="shape=table;startSize=30;container=1;collapsible=1;childLayout=tableLayout;fixedRows=1;rowLines=0;fontStyle=1;align=center;resizeLast=1;" parent="1" vertex="1"><mxGeometry x="420" y="570" width="180" height="120" as="geometry"/></mxCell><mxCell id="g_2z3JfJZCTQJ3qX_mrf-169" value="" style="shape=partialRectangle;collapsible=0;dropTarget=0;pointerEvents=0;fillColor=none;top=0;left=0;bottom=0;right=0;points=[[0,0.5],[1,0.5]];portConstraint=eastwest;" parent="g_2z3JfJZCTQJ3qX_mrf-168" vertex="1"><mxGeometry y="30" width="180" height="30" as="geometry"/></mxCell><mxCell id="g_2z3JfJZCTQJ3qX_mrf-170" value="PK,FK1" style="shape=partialRectangle;connectable=0;fillColor=none;top=0;left=0;bottom=0;right=0;fontStyle=1;overflow=hidden;" parent="g_2z3JfJZCTQJ3qX_mrf-169" vertex="1"><mxGeometry width="60" height="30" as="geometry"/></mxCell><mxCell id="g_2z3JfJZCTQJ3qX_mrf-171" value="person_id" style="shape=partialRectangle;connectable=0;fillColor=none;top=0;left=0;bottom=0;right=0;align=left;spacingLeft=6;fontStyle=5;overflow=hidden;" parent="g_2z3JfJZCTQJ3qX_mrf-169" vertex="1"><mxGeometry x="60" width="120" height="30" as="geometry"/></mxCell><mxCell id="g_2z3JfJZCTQJ3qX_mrf-172" value="" style="shape=partialRectangle;collapsible=0;dropTarget=0;pointerEvents=0;fillColor=none;top=0;left=0;bottom=1;right=0;points=[[0,0.5],[1,0.5]];portConstraint=eastwest;" parent="g_2z3JfJZCTQJ3qX_mrf-168" vertex="1"><mxGeometry y="60" width="180" height="30" as="geometry"/></mxCell><mxCell id="g_2z3JfJZCTQJ3qX_mrf-173" value="PK,FK2" style="shape=partialRectangle;connectable=0;fillColor=none;top=0;left=0;bottom=0;right=0;fontStyle=1;overflow=hidden;" parent="g_2z3JfJZCTQJ3qX_mrf-172" vertex="1"><mxGeometry width="60" height="30" as="geometry"/></mxCell><mxCell id="g_2z3JfJZCTQJ3qX_mrf-174" value="class_id" style="shape=partialRectangle;connectable=0;fillColor=none;top=0;left=0;bottom=0;right=0;align=left;spacingLeft=6;fontStyle=5;overflow=hidden;" parent="g_2z3JfJZCTQJ3qX_mrf-172" vertex="1"><mxGeometry x="60" width="120" height="30" as="geometry"/></mxCell><mxCell id="g_2z3JfJZCTQJ3qX_mrf-178" value="" style="shape=partialRectangle;collapsible=0;dropTarget=0;pointerEvents=0;fillColor=none;top=0;left=0;bottom=0;right=0;points=[[0,0.5],[1,0.5]];portConstraint=eastwest;" parent="g_2z3JfJZCTQJ3qX_mrf-168" vertex="1"><mxGeometry y="90" width="180" height="30" as="geometry"/></mxCell><mxCell id="g_2z3JfJZCTQJ3qX_mrf-179" value="" style="shape=partialRectangle;connectable=0;fillColor=none;top=0;left=0;bottom=0;right=0;editable=1;overflow=hidden;" parent="g_2z3JfJZCTQJ3qX_mrf-178" vertex="1"><mxGeometry width="60" height="30" as="geometry"/></mxCell><mxCell id="g_2z3JfJZCTQJ3qX_mrf-180" value="" style="shape=partialRectangle;connectable=0;fillColor=none;top=0;left=0;bottom=0;right=0;align=left;spacingLeft=6;overflow=hidden;" parent="g_2z3JfJZCTQJ3qX_mrf-178" vertex="1"><mxGeometry x="60" width="120" height="30" as="geometry"/></mxCell><mxCell id="g_2z3JfJZCTQJ3qX_mrf-181" value="person_id" style="text;html=1;align=center;verticalAlign=middle;resizable=0;points=[];autosize=1;strokeColor=none;" parent="1" vertex="1"><mxGeometry x="155" y="620" width="70" height="20" as="geometry"/></mxCell><mxCell id="g_2z3JfJZCTQJ3qX_mrf-184" value="" style="edgeStyle=entityRelationEdgeStyle;fontSize=12;html=1;endArrow=ERmany;startArrow=ERmany;entryX=0;entryY=0.5;entryDx=0;entryDy=0;" parent="1" target="g_2z3JfJZCTQJ3qX_mrf-169" edge="1"><mxGeometry width="100" height="100" relative="1" as="geometry"><mxPoint x="305" y="650" as="sourcePoint"/><mxPoint x="405" y="550" as="targetPoint"/></mxGeometry></mxCell><mxCell id="2" value="FK" style="text;html=1;align=center;verticalAlign=middle;resizable=0;points=[];autosize=1;strokeColor=none;" parent="1" vertex="1"><mxGeometry x="125" y="620" width="30" height="20" as="geometry"/></mxCell><mxCell id="16" value="Class_Courses" style="shape=table;startSize=30;container=1;collapsible=1;childLayout=tableLayout;fixedRows=1;rowLines=0;fontStyle=1;align=center;resizeLast=1;" parent="1" vertex="1"><mxGeometry x="390" y="890" width="185" height="150" as="geometry"/></mxCell><mxCell id="17" value="" style="shape=partialRectangle;collapsible=0;dropTarget=0;pointerEvents=0;fillColor=none;top=0;left=0;bottom=0;right=0;points=[[0,0.5],[1,0.5]];portConstraint=eastwest;" parent="16" vertex="1"><mxGeometry y="30" width="185" height="30" as="geometry"/></mxCell><mxCell id="18" value="PK,FK1" style="shape=partialRectangle;connectable=0;fillColor=none;top=0;left=0;bottom=0;right=0;fontStyle=1;overflow=hidden;" parent="17" vertex="1"><mxGeometry width="60" height="30" as="geometry"/></mxCell><mxCell id="19" value="course_id" style="shape=partialRectangle;connectable=0;fillColor=none;top=0;left=0;bottom=0;right=0;align=left;spacingLeft=6;fontStyle=5;overflow=hidden;" parent="17" vertex="1"><mxGeometry x="60" width="125" height="30" as="geometry"/></mxCell><mxCell id="20" value="" style="shape=partialRectangle;collapsible=0;dropTarget=0;pointerEvents=0;fillColor=none;top=0;left=0;bottom=1;right=0;points=[[0,0.5],[1,0.5]];portConstraint=eastwest;" parent="16" vertex="1"><mxGeometry y="60" width="185" height="30" as="geometry"/></mxCell><mxCell id="21" value="PK,FK2" style="shape=partialRectangle;connectable=0;fillColor=none;top=0;left=0;bottom=0;right=0;fontStyle=1;overflow=hidden;" parent="20" vertex="1"><mxGeometry width="60" height="30" as="geometry"/></mxCell><mxCell id="22" value="class_id" style="shape=partialRectangle;connectable=0;fillColor=none;top=0;left=0;bottom=0;right=0;align=left;spacingLeft=6;fontStyle=5;overflow=hidden;" parent="20" vertex="1"><mxGeometry x="60" width="125" height="30" as="geometry"/></mxCell><mxCell id="26" value="" style="shape=partialRectangle;collapsible=0;dropTarget=0;pointerEvents=0;fillColor=none;top=0;left=0;bottom=0;right=0;points=[[0,0.5],[1,0.5]];portConstraint=eastwest;" parent="16" vertex="1"><mxGeometry y="90" width="185" height="30" as="geometry"/></mxCell><mxCell id="27" value="" style="shape=partialRectangle;connectable=0;fillColor=none;top=0;left=0;bottom=0;right=0;editable=1;overflow=hidden;" parent="26" vertex="1"><mxGeometry width="60" height="30" as="geometry"/></mxCell><mxCell id="28" value="" style="shape=partialRectangle;connectable=0;fillColor=none;top=0;left=0;bottom=0;right=0;align=left;spacingLeft=6;overflow=hidden;" parent="26" vertex="1"><mxGeometry x="60" width="125" height="30" as="geometry"/></mxCell><mxCell id="23" value="" style="shape=partialRectangle;collapsible=0;dropTarget=0;pointerEvents=0;fillColor=none;top=0;left=0;bottom=0;right=0;points=[[0,0.5],[1,0.5]];portConstraint=eastwest;" parent="16" vertex="1"><mxGeometry y="120" width="185" height="30" as="geometry"/></mxCell><mxCell id="24" value="" style="shape=partialRectangle;connectable=0;fillColor=none;top=0;left=0;bottom=0;right=0;editable=1;overflow=hidden;" parent="23" vertex="1"><mxGeometry width="60" height="30" as="geometry"/></mxCell><mxCell id="25" value="" style="shape=partialRectangle;connectable=0;fillColor=none;top=0;left=0;bottom=0;right=0;align=left;spacingLeft=6;overflow=hidden;" parent="23" vertex="1"><mxGeometry x="60" width="125" height="30" as="geometry"/></mxCell><mxCell id="29" value="Course" style="shape=table;startSize=30;container=1;collapsible=1;childLayout=tableLayout;fixedRows=1;rowLines=0;fontStyle=1;align=center;resizeLast=1;" parent="1" vertex="1"><mxGeometry x="610" y="730" width="180" height="190" as="geometry"/></mxCell><mxCell id="30" value="" style="shape=partialRectangle;collapsible=0;dropTarget=0;pointerEvents=0;fillColor=none;top=0;left=0;bottom=1;right=0;points=[[0,0.5],[1,0.5]];portConstraint=eastwest;" parent="29" vertex="1"><mxGeometry y="30" width="180" height="30" as="geometry"/></mxCell><mxCell id="31" value="PK" style="shape=partialRectangle;connectable=0;fillColor=none;top=0;left=0;bottom=0;right=0;fontStyle=1;overflow=hidden;" parent="30" vertex="1"><mxGeometry width="30" height="30" as="geometry"/></mxCell><mxCell id="32" value="course_id" style="shape=partialRectangle;connectable=0;fillColor=none;top=0;left=0;bottom=0;right=0;align=left;spacingLeft=6;fontStyle=5;overflow=hidden;" parent="30" vertex="1"><mxGeometry x="30" width="150" height="30" as="geometry"/></mxCell><mxCell id="45" value="" style="shape=partialRectangle;collapsible=0;dropTarget=0;pointerEvents=0;fillColor=none;top=0;left=0;bottom=0;right=0;points=[[0,0.5],[1,0.5]];portConstraint=eastwest;" parent="29" vertex="1"><mxGeometry y="60" width="180" height="30" as="geometry"/></mxCell><mxCell id="46" value="" style="shape=partialRectangle;connectable=0;fillColor=none;top=0;left=0;bottom=0;right=0;editable=1;overflow=hidden;" parent="45" vertex="1"><mxGeometry width="30" height="30" as="geometry"/></mxCell><mxCell id="47" value="course_name" style="shape=partialRectangle;connectable=0;fillColor=none;top=0;left=0;bottom=0;right=0;align=left;spacingLeft=6;overflow=hidden;" parent="45" vertex="1"><mxGeometry x="30" width="150" height="30" as="geometry"/></mxCell><mxCell id="33" value="" style="shape=partialRectangle;collapsible=0;dropTarget=0;pointerEvents=0;fillColor=none;top=0;left=0;bottom=0;right=0;points=[[0,0.5],[1,0.5]];portConstraint=eastwest;" parent="29" vertex="1"><mxGeometry y="90" width="180" height="30" as="geometry"/></mxCell><mxCell id="34" value="" style="shape=partialRectangle;connectable=0;fillColor=none;top=0;left=0;bottom=0;right=0;editable=1;overflow=hidden;" parent="33" vertex="1"><mxGeometry width="30" height="30" as="geometry"/></mxCell><mxCell id="35" value="course_name" style="shape=partialRectangle;connectable=0;fillColor=none;top=0;left=0;bottom=0;right=0;align=left;spacingLeft=6;overflow=hidden;" parent="33" vertex="1"><mxGeometry x="30" width="150" height="30" as="geometry"/></mxCell><mxCell id="36" value="" style="shape=partialRectangle;collapsible=0;dropTarget=0;pointerEvents=0;fillColor=none;top=0;left=0;bottom=0;right=0;points=[[0,0.5],[1,0.5]];portConstraint=eastwest;" parent="29" vertex="1"><mxGeometry y="120" width="180" height="30" as="geometry"/></mxCell><mxCell id="37" value="" style="shape=partialRectangle;connectable=0;fillColor=none;top=0;left=0;bottom=0;right=0;editable=1;overflow=hidden;" parent="36" vertex="1"><mxGeometry width="30" height="30" as="geometry"/></mxCell><mxCell id="38" value="course_hours" style="shape=partialRectangle;connectable=0;fillColor=none;top=0;left=0;bottom=0;right=0;align=left;spacingLeft=6;overflow=hidden;" parent="36" vertex="1"><mxGeometry x="30" width="150" height="30" as="geometry"/></mxCell><mxCell id="39" value="" style="shape=partialRectangle;collapsible=0;dropTarget=0;pointerEvents=0;fillColor=none;top=0;left=0;bottom=0;right=0;points=[[0,0.5],[1,0.5]];portConstraint=eastwest;" parent="29" vertex="1"><mxGeometry y="150" width="180" height="30" as="geometry"/></mxCell><mxCell id="40" value="" style="shape=partialRectangle;connectable=0;fillColor=none;top=0;left=0;bottom=0;right=0;editable=1;overflow=hidden;" parent="39" vertex="1"><mxGeometry width="30" height="30" as="geometry"/></mxCell><mxCell id="41" value="" style="shape=partialRectangle;connectable=0;fillColor=none;top=0;left=0;bottom=0;right=0;align=left;spacingLeft=6;overflow=hidden;" parent="39" vertex="1"><mxGeometry x="30" width="150" height="30" as="geometry"/></mxCell><mxCell id="43" value="" style="edgeStyle=entityRelationEdgeStyle;fontSize=12;html=1;endArrow=ERoneToMany;" parent="1" edge="1"><mxGeometry width="100" height="100" relative="1" as="geometry"><mxPoint x="575" y="1000" as="sourcePoint"/><mxPoint x="605" y="760" as="targetPoint"/></mxGeometry></mxCell><mxCell id="44" value="" style="edgeStyle=entityRelationEdgeStyle;fontSize=12;html=1;endArrow=ERoneToMany;exitX=1;exitY=0.5;exitDx=0;exitDy=0;entryX=0;entryY=0.5;entryDx=0;entryDy=0;" parent="1" source="g_2z3JfJZCTQJ3qX_mrf-47" target="20" edge="1"><mxGeometry width="100" height="100" relative="1" as="geometry"><mxPoint x="325" y="1080" as="sourcePoint"/><mxPoint x="425" y="780" as="targetPoint"/></mxGeometry></mxCell><mxCell id="48" value="Tasks" style="shape=table;startSize=30;container=1;collapsible=1;childLayout=tableLayout;fixedRows=1;rowLines=0;fontStyle=1;align=center;resizeLast=1;" parent="1" vertex="1"><mxGeometry x="-220" y="490" width="180" height="210" as="geometry"/></mxCell><mxCell id="49" value="" style="shape=partialRectangle;collapsible=0;dropTarget=0;pointerEvents=0;fillColor=none;top=0;left=0;bottom=1;right=0;points=[[0,0.5],[1,0.5]];portConstraint=eastwest;" parent="48" vertex="1"><mxGeometry y="30" width="180" height="30" as="geometry"/></mxCell><mxCell id="50" value="PK" style="shape=partialRectangle;connectable=0;fillColor=none;top=0;left=0;bottom=0;right=0;fontStyle=1;overflow=hidden;" parent="49" vertex="1"><mxGeometry width="30" height="30" as="geometry"/></mxCell><mxCell id="51" value="tasks_id" style="shape=partialRectangle;connectable=0;fillColor=none;top=0;left=0;bottom=0;right=0;align=left;spacingLeft=6;fontStyle=5;overflow=hidden;" parent="49" vertex="1"><mxGeometry x="30" width="150" height="30" as="geometry"/></mxCell><mxCell id="52" value="" style="shape=partialRectangle;collapsible=0;dropTarget=0;pointerEvents=0;fillColor=none;top=0;left=0;bottom=0;right=0;points=[[0,0.5],[1,0.5]];portConstraint=eastwest;" parent="48" vertex="1"><mxGeometry y="60" width="180" height="30" as="geometry"/></mxCell><mxCell id="53" value="" style="shape=partialRectangle;connectable=0;fillColor=none;top=0;left=0;bottom=0;right=0;editable=1;overflow=hidden;" parent="52" vertex="1"><mxGeometry width="30" height="30" as="geometry"/></mxCell><mxCell id="54" value="task_name" style="shape=partialRectangle;connectable=0;fillColor=none;top=0;left=0;bottom=0;right=0;align=left;spacingLeft=6;overflow=hidden;" parent="52" vertex="1"><mxGeometry x="30" width="150" height="30" as="geometry"/></mxCell><mxCell id="55" value="" style="shape=partialRectangle;collapsible=0;dropTarget=0;pointerEvents=0;fillColor=none;top=0;left=0;bottom=0;right=0;points=[[0,0.5],[1,0.5]];portConstraint=eastwest;" parent="48" vertex="1"><mxGeometry y="90" width="180" height="30" as="geometry"/></mxCell><mxCell id="56" value="" style="shape=partialRectangle;connectable=0;fillColor=none;top=0;left=0;bottom=0;right=0;editable=1;overflow=hidden;" parent="55" vertex="1"><mxGeometry width="30" height="30" as="geometry"/></mxCell><mxCell id="57" value="task_description" style="shape=partialRectangle;connectable=0;fillColor=none;top=0;left=0;bottom=0;right=0;align=left;spacingLeft=6;overflow=hidden;" parent="55" vertex="1"><mxGeometry x="30" width="150" height="30" as="geometry"/></mxCell><mxCell id="58" value="" style="shape=partialRectangle;collapsible=0;dropTarget=0;pointerEvents=0;fillColor=none;top=0;left=0;bottom=0;right=0;points=[[0,0.5],[1,0.5]];portConstraint=eastwest;" parent="48" vertex="1"><mxGeometry y="120" width="180" height="30" as="geometry"/></mxCell><mxCell id="59" value="" style="shape=partialRectangle;connectable=0;fillColor=none;top=0;left=0;bottom=0;right=0;editable=1;overflow=hidden;" parent="58" vertex="1"><mxGeometry width="30" height="30" as="geometry"/></mxCell><mxCell id="60" value="task_file" style="shape=partialRectangle;connectable=0;fillColor=none;top=0;left=0;bottom=0;right=0;align=left;spacingLeft=6;overflow=hidden;" parent="58" vertex="1"><mxGeometry x="30" width="150" height="30" as="geometry"/></mxCell><mxCell id="65" value="" style="shape=waypoint;size=6;pointerEvents=1;points=[];fillColor=#2a2a2a;resizable=0;rotatable=0;perimeter=centerPerimeter;snapToPoint=1;fontStyle=1;startSize=30;" parent="1" vertex="1"><mxGeometry x="110" y="550" width="40" height="40" as="geometry"/></mxCell><mxCell id="67" value="" style="edgeStyle=entityRelationEdgeStyle;fontSize=12;html=1;endArrow=ERoneToMany;" parent="1" edge="1"><mxGeometry width="100" height="100" relative="1" as="geometry"><mxPoint x="310" y="480" as="sourcePoint"/><mxPoint x="-230" y="500" as="targetPoint"/></mxGeometry></mxCell><mxCell id="68" value="class_id" style="text;html=1;align=center;verticalAlign=middle;resizable=0;points=[];autosize=1;strokeColor=none;" parent="1" vertex="1"><mxGeometry x="-190" y="640" width="60" height="20" as="geometry"/></mxCell><mxCell id="73" value="FK" style="text;html=1;align=center;verticalAlign=middle;resizable=0;points=[];autosize=1;strokeColor=none;" parent="1" vertex="1"><mxGeometry x="-225" y="640" width="30" height="20" as="geometry"/></mxCell><mxCell id="76" value="Person" style="shape=table;startSize=30;container=1;collapsible=1;childLayout=tableLayout;fixedRows=1;rowLines=0;fontStyle=1;align=center;resizeLast=1;" vertex="1" parent="1"><mxGeometry x="450" y="50" width="190" height="300" as="geometry"/></mxCell><mxCell id="77" value="" style="shape=partialRectangle;collapsible=0;dropTarget=0;pointerEvents=0;fillColor=none;top=0;left=0;bottom=1;right=0;points=[[0,0.5],[1,0.5]];portConstraint=eastwest;" vertex="1" parent="76"><mxGeometry y="30" width="190" height="30" as="geometry"/></mxCell><mxCell id="78" value="PK" style="shape=partialRectangle;connectable=0;fillColor=none;top=0;left=0;bottom=0;right=0;fontStyle=1;overflow=hidden;" vertex="1" parent="77"><mxGeometry width="30" height="30" as="geometry"/></mxCell><mxCell id="79" value="person_id" style="shape=partialRectangle;connectable=0;fillColor=none;top=0;left=0;bottom=0;right=0;align=left;spacingLeft=6;fontStyle=5;overflow=hidden;" vertex="1" parent="77"><mxGeometry x="30" width="160" height="30" as="geometry"/></mxCell><mxCell id="80" value="" style="shape=partialRectangle;collapsible=0;dropTarget=0;pointerEvents=0;fillColor=none;top=0;left=0;bottom=0;right=0;points=[[0,0.5],[1,0.5]];portConstraint=eastwest;" vertex="1" parent="76"><mxGeometry y="60" width="190" height="30" as="geometry"/></mxCell><mxCell id="81" value="" style="shape=partialRectangle;connectable=0;fillColor=none;top=0;left=0;bottom=0;right=0;editable=1;overflow=hidden;" vertex="1" parent="80"><mxGeometry width="30" height="30" as="geometry"/></mxCell><mxCell id="82" value="person_name" style="shape=partialRectangle;connectable=0;fillColor=none;top=0;left=0;bottom=0;right=0;align=left;spacingLeft=6;overflow=hidden;" vertex="1" parent="80"><mxGeometry x="30" width="160" height="30" as="geometry"/></mxCell><mxCell id="83" value="" style="shape=partialRectangle;collapsible=0;dropTarget=0;pointerEvents=0;fillColor=none;top=0;left=0;bottom=0;right=0;points=[[0,0.5],[1,0.5]];portConstraint=eastwest;" vertex="1" parent="76"><mxGeometry y="90" width="190" height="30" as="geometry"/></mxCell><mxCell id="84" value="" style="shape=partialRectangle;connectable=0;fillColor=none;top=0;left=0;bottom=0;right=0;editable=1;overflow=hidden;" vertex="1" parent="83"><mxGeometry width="30" height="30" as="geometry"/></mxCell><mxCell id="85" value="person_address" style="shape=partialRectangle;connectable=0;fillColor=none;top=0;left=0;bottom=0;right=0;align=left;spacingLeft=6;overflow=hidden;" vertex="1" parent="83"><mxGeometry x="30" width="160" height="30" as="geometry"/></mxCell><mxCell id="90" value="" style="shape=partialRectangle;collapsible=0;dropTarget=0;pointerEvents=0;fillColor=none;top=0;left=0;bottom=0;right=0;points=[[0,0.5],[1,0.5]];portConstraint=eastwest;" vertex="1" parent="76"><mxGeometry y="120" width="190" height="30" as="geometry"/></mxCell><mxCell id="91" value="" style="shape=partialRectangle;connectable=0;fillColor=none;top=0;left=0;bottom=0;right=0;editable=1;overflow=hidden;" vertex="1" parent="90"><mxGeometry width="30" height="30" as="geometry"/></mxCell><mxCell id="92" value="person_birthdate" style="shape=partialRectangle;connectable=0;fillColor=none;top=0;left=0;bottom=0;right=0;align=left;spacingLeft=6;overflow=hidden;" vertex="1" parent="90"><mxGeometry x="30" width="160" height="30" as="geometry"/></mxCell><mxCell id="93" value="" style="shape=partialRectangle;collapsible=0;dropTarget=0;pointerEvents=0;fillColor=none;top=0;left=0;bottom=0;right=0;points=[[0,0.5],[1,0.5]];portConstraint=eastwest;" vertex="1" parent="76"><mxGeometry y="150" width="190" height="30" as="geometry"/></mxCell><mxCell id="94" value="" style="shape=partialRectangle;connectable=0;fillColor=none;top=0;left=0;bottom=0;right=0;editable=1;overflow=hidden;" vertex="1" parent="93"><mxGeometry width="30" height="30" as="geometry"/></mxCell><mxCell id="95" value="person_phone" style="shape=partialRectangle;connectable=0;fillColor=none;top=0;left=0;bottom=0;right=0;align=left;spacingLeft=6;overflow=hidden;" vertex="1" parent="93"><mxGeometry x="30" width="160" height="30" as="geometry"/></mxCell><mxCell id="96" value="" style="shape=partialRectangle;collapsible=0;dropTarget=0;pointerEvents=0;fillColor=none;top=0;left=0;bottom=0;right=0;points=[[0,0.5],[1,0.5]];portConstraint=eastwest;" vertex="1" parent="76"><mxGeometry y="180" width="190" height="30" as="geometry"/></mxCell><mxCell id="97" value="" style="shape=partialRectangle;connectable=0;fillColor=none;top=0;left=0;bottom=0;right=0;editable=1;overflow=hidden;" vertex="1" parent="96"><mxGeometry width="30" height="30" as="geometry"/></mxCell><mxCell id="98" value="person_email" style="shape=partialRectangle;connectable=0;fillColor=none;top=0;left=0;bottom=0;right=0;align=left;spacingLeft=6;overflow=hidden;" vertex="1" parent="96"><mxGeometry x="30" width="160" height="30" as="geometry"/></mxCell><mxCell id="102" value="" style="shape=partialRectangle;collapsible=0;dropTarget=0;pointerEvents=0;fillColor=none;top=0;left=0;bottom=0;right=0;points=[[0,0.5],[1,0.5]];portConstraint=eastwest;" vertex="1" parent="76"><mxGeometry y="210" width="190" height="30" as="geometry"/></mxCell><mxCell id="103" value="FK" style="shape=partialRectangle;connectable=0;fillColor=none;top=0;left=0;bottom=0;right=0;editable=1;overflow=hidden;" vertex="1" parent="102"><mxGeometry width="30" height="30" as="geometry"/></mxCell><mxCell id="104" value="role" style="shape=partialRectangle;connectable=0;fillColor=none;top=0;left=0;bottom=0;right=0;align=left;spacingLeft=6;overflow=hidden;" vertex="1" parent="102"><mxGeometry x="30" width="160" height="30" as="geometry"/></mxCell><mxCell id="99" value="" style="shape=partialRectangle;collapsible=0;dropTarget=0;pointerEvents=0;fillColor=none;top=0;left=0;bottom=0;right=0;points=[[0,0.5],[1,0.5]];portConstraint=eastwest;" vertex="1" parent="76"><mxGeometry y="240" width="190" height="30" as="geometry"/></mxCell><mxCell id="100" value="FK" style="shape=partialRectangle;connectable=0;fillColor=none;top=0;left=0;bottom=0;right=0;editable=1;overflow=hidden;" vertex="1" parent="99"><mxGeometry width="30" height="30" as="geometry"/></mxCell><mxCell id="101" value="person_user" style="shape=partialRectangle;connectable=0;fillColor=none;top=0;left=0;bottom=0;right=0;align=left;spacingLeft=6;overflow=hidden;" vertex="1" parent="99"><mxGeometry x="30" width="160" height="30" as="geometry"/></mxCell><mxCell id="86" value="" style="shape=partialRectangle;collapsible=0;dropTarget=0;pointerEvents=0;fillColor=none;top=0;left=0;bottom=0;right=0;points=[[0,0.5],[1,0.5]];portConstraint=eastwest;" vertex="1" parent="76"><mxGeometry y="270" width="190" height="30" as="geometry"/></mxCell><mxCell id="87" value="" style="shape=partialRectangle;connectable=0;fillColor=none;top=0;left=0;bottom=0;right=0;editable=1;overflow=hidden;" vertex="1" parent="86"><mxGeometry width="30" height="30" as="geometry"/></mxCell><mxCell id="88" value="" style="shape=partialRectangle;connectable=0;fillColor=none;top=0;left=0;bottom=0;right=0;align=left;spacingLeft=6;overflow=hidden;" vertex="1" parent="86"><mxGeometry x="30" width="160" height="30" as="geometry"/></mxCell><mxCell id="105" value="" style="edgeStyle=entityRelationEdgeStyle;fontSize=12;html=1;endArrow=ERmany;" edge="1" parent="1"><mxGeometry width="100" height="100" relative="1" as="geometry"><mxPoint x="600" y="610" as="sourcePoint"/><mxPoint x="440" y="90" as="targetPoint"/></mxGeometry></mxCell><mxCell id="106" value="Person_Role" style="shape=table;startSize=30;container=1;collapsible=1;childLayout=tableLayout;fixedRows=1;rowLines=0;fontStyle=1;align=center;resizeLast=1;" vertex="1" parent="1"><mxGeometry x="750" y="490" width="180" height="150" as="geometry"/></mxCell><mxCell id="107" value="" style="shape=partialRectangle;collapsible=0;dropTarget=0;pointerEvents=0;fillColor=none;top=0;left=0;bottom=0;right=0;points=[[0,0.5],[1,0.5]];portConstraint=eastwest;" vertex="1" parent="106"><mxGeometry y="30" width="180" height="30" as="geometry"/></mxCell><mxCell id="108" value="PK,FK1" style="shape=partialRectangle;connectable=0;fillColor=none;top=0;left=0;bottom=0;right=0;fontStyle=1;overflow=hidden;" vertex="1" parent="107"><mxGeometry width="60" height="30" as="geometry"/></mxCell><mxCell id="109" value="person_id" style="shape=partialRectangle;connectable=0;fillColor=none;top=0;left=0;bottom=0;right=0;align=left;spacingLeft=6;fontStyle=5;overflow=hidden;" vertex="1" parent="107"><mxGeometry x="60" width="120" height="30" as="geometry"/></mxCell><mxCell id="110" value="" style="shape=partialRectangle;collapsible=0;dropTarget=0;pointerEvents=0;fillColor=none;top=0;left=0;bottom=1;right=0;points=[[0,0.5],[1,0.5]];portConstraint=eastwest;" vertex="1" parent="106"><mxGeometry y="60" width="180" height="30" as="geometry"/></mxCell><mxCell id="111" value="PK,FK2" style="shape=partialRectangle;connectable=0;fillColor=none;top=0;left=0;bottom=0;right=0;fontStyle=1;overflow=hidden;" vertex="1" parent="110"><mxGeometry width="60" height="30" as="geometry"/></mxCell><mxCell id="112" value="role_id" style="shape=partialRectangle;connectable=0;fillColor=none;top=0;left=0;bottom=0;right=0;align=left;spacingLeft=6;fontStyle=5;overflow=hidden;" vertex="1" parent="110"><mxGeometry x="60" width="120" height="30" as="geometry"/></mxCell><mxCell id="113" value="" style="shape=partialRectangle;collapsible=0;dropTarget=0;pointerEvents=0;fillColor=none;top=0;left=0;bottom=0;right=0;points=[[0,0.5],[1,0.5]];portConstraint=eastwest;" vertex="1" parent="106"><mxGeometry y="90" width="180" height="30" as="geometry"/></mxCell><mxCell id="114" value="" style="shape=partialRectangle;connectable=0;fillColor=none;top=0;left=0;bottom=0;right=0;editable=1;overflow=hidden;" vertex="1" parent="113"><mxGeometry width="60" height="30" as="geometry"/></mxCell><mxCell id="115" value="" style="shape=partialRectangle;connectable=0;fillColor=none;top=0;left=0;bottom=0;right=0;align=left;spacingLeft=6;overflow=hidden;" vertex="1" parent="113"><mxGeometry x="60" width="120" height="30" as="geometry"/></mxCell><mxCell id="116" value="" style="shape=partialRectangle;collapsible=0;dropTarget=0;pointerEvents=0;fillColor=none;top=0;left=0;bottom=0;right=0;points=[[0,0.5],[1,0.5]];portConstraint=eastwest;" vertex="1" parent="106"><mxGeometry y="120" width="180" height="30" as="geometry"/></mxCell><mxCell id="117" value="" style="shape=partialRectangle;connectable=0;fillColor=none;top=0;left=0;bottom=0;right=0;editable=1;overflow=hidden;" vertex="1" parent="116"><mxGeometry width="60" height="30" as="geometry"/></mxCell><mxCell id="118" value="" style="shape=partialRectangle;connectable=0;fillColor=none;top=0;left=0;bottom=0;right=0;align=left;spacingLeft=6;overflow=hidden;" vertex="1" parent="116"><mxGeometry x="60" width="120" height="30" as="geometry"/></mxCell><mxCell id="119" value="Role" style="shape=table;startSize=30;container=1;collapsible=1;childLayout=tableLayout;fixedRows=1;rowLines=0;fontStyle=1;align=center;resizeLast=1;" vertex="1" parent="1"><mxGeometry x="770" y="270" width="180" height="150" as="geometry"/></mxCell><mxCell id="120" value="" style="shape=partialRectangle;collapsible=0;dropTarget=0;pointerEvents=0;fillColor=none;top=0;left=0;bottom=1;right=0;points=[[0,0.5],[1,0.5]];portConstraint=eastwest;" vertex="1" parent="119"><mxGeometry y="30" width="180" height="30" as="geometry"/></mxCell><mxCell id="121" value="PK" style="shape=partialRectangle;connectable=0;fillColor=none;top=0;left=0;bottom=0;right=0;fontStyle=1;overflow=hidden;" vertex="1" parent="120"><mxGeometry width="30" height="30" as="geometry"/></mxCell><mxCell id="122" value="role_id" style="shape=partialRectangle;connectable=0;fillColor=none;top=0;left=0;bottom=0;right=0;align=left;spacingLeft=6;fontStyle=5;overflow=hidden;" vertex="1" parent="120"><mxGeometry x="30" width="150" height="30" as="geometry"/></mxCell><mxCell id="123" value="" style="shape=partialRectangle;collapsible=0;dropTarget=0;pointerEvents=0;fillColor=none;top=0;left=0;bottom=0;right=0;points=[[0,0.5],[1,0.5]];portConstraint=eastwest;" vertex="1" parent="119"><mxGeometry y="60" width="180" height="30" as="geometry"/></mxCell><mxCell id="124" value="" style="shape=partialRectangle;connectable=0;fillColor=none;top=0;left=0;bottom=0;right=0;editable=1;overflow=hidden;" vertex="1" parent="123"><mxGeometry width="30" height="30" as="geometry"/></mxCell><mxCell id="125" value="role_name" style="shape=partialRectangle;connectable=0;fillColor=none;top=0;left=0;bottom=0;right=0;align=left;spacingLeft=6;overflow=hidden;" vertex="1" parent="123"><mxGeometry x="30" width="150" height="30" as="geometry"/></mxCell><mxCell id="126" value="" style="shape=partialRectangle;collapsible=0;dropTarget=0;pointerEvents=0;fillColor=none;top=0;left=0;bottom=0;right=0;points=[[0,0.5],[1,0.5]];portConstraint=eastwest;" vertex="1" parent="119"><mxGeometry y="90" width="180" height="30" as="geometry"/></mxCell><mxCell id="127" value="" style="shape=partialRectangle;connectable=0;fillColor=none;top=0;left=0;bottom=0;right=0;editable=1;overflow=hidden;" vertex="1" parent="126"><mxGeometry width="30" height="30" as="geometry"/></mxCell><mxCell id="128" value="" style="shape=partialRectangle;connectable=0;fillColor=none;top=0;left=0;bottom=0;right=0;align=left;spacingLeft=6;overflow=hidden;" vertex="1" parent="126"><mxGeometry x="30" width="150" height="30" as="geometry"/></mxCell><mxCell id="129" value="" style="shape=partialRectangle;collapsible=0;dropTarget=0;pointerEvents=0;fillColor=none;top=0;left=0;bottom=0;right=0;points=[[0,0.5],[1,0.5]];portConstraint=eastwest;" vertex="1" parent="119"><mxGeometry y="120" width="180" height="30" as="geometry"/></mxCell><mxCell id="130" value="" style="shape=partialRectangle;connectable=0;fillColor=none;top=0;left=0;bottom=0;right=0;editable=1;overflow=hidden;" vertex="1" parent="129"><mxGeometry width="30" height="30" as="geometry"/></mxCell><mxCell id="131" value="" style="shape=partialRectangle;connectable=0;fillColor=none;top=0;left=0;bottom=0;right=0;align=left;spacingLeft=6;overflow=hidden;" vertex="1" parent="129"><mxGeometry x="30" width="150" height="30" as="geometry"/></mxCell><mxCell id="132" value="" style="edgeStyle=entityRelationEdgeStyle;fontSize=12;html=1;endArrow=ERoneToMany;entryX=0;entryY=0.5;entryDx=0;entryDy=0;" edge="1" parent="1" target="110"><mxGeometry width="100" height="100" relative="1" as="geometry"><mxPoint x="640" y="300" as="sourcePoint"/><mxPoint x="740" y="200" as="targetPoint"/></mxGeometry></mxCell><mxCell id="133" value="" style="edgeStyle=entityRelationEdgeStyle;fontSize=12;html=1;endArrow=ERmany;" edge="1" parent="1"><mxGeometry width="100" height="100" relative="1" as="geometry"><mxPoint x="930" y="570" as="sourcePoint"/><mxPoint x="760" y="400" as="targetPoint"/></mxGeometry></mxCell><mxCell id="134" value="User" style="shape=table;startSize=30;container=1;collapsible=1;childLayout=tableLayout;fixedRows=1;rowLines=0;fontStyle=1;align=center;resizeLast=1;" vertex="1" parent="1"><mxGeometry x="1050" y="110" width="180" height="160" as="geometry"/></mxCell><mxCell id="135" value="" style="shape=partialRectangle;collapsible=0;dropTarget=0;pointerEvents=0;fillColor=none;top=0;left=0;bottom=1;right=0;points=[[0,0.5],[1,0.5]];portConstraint=eastwest;" vertex="1" parent="134"><mxGeometry y="30" width="180" height="30" as="geometry"/></mxCell><mxCell id="136" value="PK" style="shape=partialRectangle;connectable=0;fillColor=none;top=0;left=0;bottom=0;right=0;fontStyle=1;overflow=hidden;" vertex="1" parent="135"><mxGeometry width="30" height="30" as="geometry"/></mxCell><mxCell id="137" value="user_id" style="shape=partialRectangle;connectable=0;fillColor=none;top=0;left=0;bottom=0;right=0;align=left;spacingLeft=6;fontStyle=5;overflow=hidden;" vertex="1" parent="135"><mxGeometry x="30" width="150" height="30" as="geometry"/></mxCell><mxCell id="138" value="" style="shape=partialRectangle;collapsible=0;dropTarget=0;pointerEvents=0;fillColor=none;top=0;left=0;bottom=0;right=0;points=[[0,0.5],[1,0.5]];portConstraint=eastwest;" vertex="1" parent="134"><mxGeometry y="60" width="180" height="30" as="geometry"/></mxCell><mxCell id="139" value="" style="shape=partialRectangle;connectable=0;fillColor=none;top=0;left=0;bottom=0;right=0;editable=1;overflow=hidden;" vertex="1" parent="138"><mxGeometry width="30" height="30" as="geometry"/></mxCell><mxCell id="140" value="user_name" style="shape=partialRectangle;connectable=0;fillColor=none;top=0;left=0;bottom=0;right=0;align=left;spacingLeft=6;overflow=hidden;" vertex="1" parent="138"><mxGeometry x="30" width="150" height="30" as="geometry"/></mxCell><mxCell id="141" value="" style="shape=partialRectangle;collapsible=0;dropTarget=0;pointerEvents=0;fillColor=none;top=0;left=0;bottom=0;right=0;points=[[0,0.5],[1,0.5]];portConstraint=eastwest;" vertex="1" parent="134"><mxGeometry y="90" width="180" height="30" as="geometry"/></mxCell><mxCell id="142" value="" style="shape=partialRectangle;connectable=0;fillColor=none;top=0;left=0;bottom=0;right=0;editable=1;overflow=hidden;" vertex="1" parent="141"><mxGeometry width="30" height="30" as="geometry"/></mxCell><mxCell id="143" value="user_password" style="shape=partialRectangle;connectable=0;fillColor=none;top=0;left=0;bottom=0;right=0;align=left;spacingLeft=6;overflow=hidden;" vertex="1" parent="141"><mxGeometry x="30" width="150" height="30" as="geometry"/></mxCell><mxCell id="144" value="" style="shape=partialRectangle;collapsible=0;dropTarget=0;pointerEvents=0;fillColor=none;top=0;left=0;bottom=0;right=0;points=[[0,0.5],[1,0.5]];portConstraint=eastwest;" vertex="1" parent="134"><mxGeometry y="120" width="180" height="30" as="geometry"/></mxCell><mxCell id="145" value="FK" style="shape=partialRectangle;connectable=0;fillColor=none;top=0;left=0;bottom=0;right=0;editable=1;overflow=hidden;" vertex="1" parent="144"><mxGeometry width="30" height="30" as="geometry"/></mxCell><mxCell id="146" value="person_id" style="shape=partialRectangle;connectable=0;fillColor=none;top=0;left=0;bottom=0;right=0;align=left;spacingLeft=6;overflow=hidden;" vertex="1" parent="144"><mxGeometry x="30" width="150" height="30" as="geometry"/></mxCell><mxCell id="148" value="" style="edgeStyle=entityRelationEdgeStyle;fontSize=12;html=1;endArrow=ERoneToMany;" edge="1" parent="1"><mxGeometry width="100" height="100" relative="1" as="geometry"><mxPoint x="1210" y="560" as="sourcePoint"/><mxPoint x="1040" y="250" as="targetPoint"/></mxGeometry></mxCell><mxCell id="149" value="User_Role" style="shape=table;startSize=30;container=1;collapsible=1;childLayout=tableLayout;fixedRows=1;rowLines=0;fontStyle=1;align=center;resizeLast=1;" vertex="1" parent="1"><mxGeometry x="1030" y="500" width="180" height="160" as="geometry"/></mxCell><mxCell id="150" value="" style="shape=partialRectangle;collapsible=0;dropTarget=0;pointerEvents=0;fillColor=none;top=0;left=0;bottom=0;right=0;points=[[0,0.5],[1,0.5]];portConstraint=eastwest;" vertex="1" parent="149"><mxGeometry y="30" width="180" height="30" as="geometry"/></mxCell><mxCell id="151" value="PK,FK1" style="shape=partialRectangle;connectable=0;fillColor=none;top=0;left=0;bottom=0;right=0;fontStyle=1;overflow=hidden;" vertex="1" parent="150"><mxGeometry width="60" height="30" as="geometry"/></mxCell><mxCell id="152" value="user_id" style="shape=partialRectangle;connectable=0;fillColor=none;top=0;left=0;bottom=0;right=0;align=left;spacingLeft=6;fontStyle=5;overflow=hidden;" vertex="1" parent="150"><mxGeometry x="60" width="120" height="30" as="geometry"/></mxCell><mxCell id="153" value="" style="shape=partialRectangle;collapsible=0;dropTarget=0;pointerEvents=0;fillColor=none;top=0;left=0;bottom=1;right=0;points=[[0,0.5],[1,0.5]];portConstraint=eastwest;" vertex="1" parent="149"><mxGeometry y="60" width="180" height="30" as="geometry"/></mxCell><mxCell id="154" value="PK,FK2" style="shape=partialRectangle;connectable=0;fillColor=none;top=0;left=0;bottom=0;right=0;fontStyle=1;overflow=hidden;" vertex="1" parent="153"><mxGeometry width="60" height="30" as="geometry"/></mxCell><mxCell id="155" value="role_id" style="shape=partialRectangle;connectable=0;fillColor=none;top=0;left=0;bottom=0;right=0;align=left;spacingLeft=6;fontStyle=5;overflow=hidden;" vertex="1" parent="153"><mxGeometry x="60" width="120" height="30" as="geometry"/></mxCell><mxCell id="156" value="" style="shape=partialRectangle;collapsible=0;dropTarget=0;pointerEvents=0;fillColor=none;top=0;left=0;bottom=0;right=0;points=[[0,0.5],[1,0.5]];portConstraint=eastwest;" vertex="1" parent="149"><mxGeometry y="90" width="180" height="30" as="geometry"/></mxCell><mxCell id="157" value="" style="shape=partialRectangle;connectable=0;fillColor=none;top=0;left=0;bottom=0;right=0;editable=1;overflow=hidden;" vertex="1" parent="156"><mxGeometry width="60" height="30" as="geometry"/></mxCell><mxCell id="158" value="" style="shape=partialRectangle;connectable=0;fillColor=none;top=0;left=0;bottom=0;right=0;align=left;spacingLeft=6;overflow=hidden;" vertex="1" parent="156"><mxGeometry x="60" width="120" height="30" as="geometry"/></mxCell><mxCell id="159" value="" style="shape=partialRectangle;collapsible=0;dropTarget=0;pointerEvents=0;fillColor=none;top=0;left=0;bottom=0;right=0;points=[[0,0.5],[1,0.5]];portConstraint=eastwest;" vertex="1" parent="149"><mxGeometry y="120" width="180" height="30" as="geometry"/></mxCell><mxCell id="160" value="" style="shape=partialRectangle;connectable=0;fillColor=none;top=0;left=0;bottom=0;right=0;editable=1;overflow=hidden;" vertex="1" parent="159"><mxGeometry width="60" height="30" as="geometry"/></mxCell><mxCell id="161" value="" style="shape=partialRectangle;connectable=0;fillColor=none;top=0;left=0;bottom=0;right=0;align=left;spacingLeft=6;overflow=hidden;" vertex="1" parent="159"><mxGeometry x="60" width="120" height="30" as="geometry"/></mxCell><mxCell id="163" value="" style="edgeStyle=entityRelationEdgeStyle;fontSize=12;html=1;endArrow=ERoneToMany;entryX=-0.017;entryY=0.733;entryDx=0;entryDy=0;entryPerimeter=0;" edge="1" parent="1" target="150"><mxGeometry width="100" height="100" relative="1" as="geometry"><mxPoint x="950" y="410" as="sourcePoint"/><mxPoint x="1050" y="310" as="targetPoint"/></mxGeometry></mxCell><mxCell id="164" value="" style="edgeStyle=entityRelationEdgeStyle;fontSize=12;html=1;endArrow=ERmandOne;startArrow=ERmandOne;" edge="1" parent="1"><mxGeometry width="100" height="100" relative="1" as="geometry"><mxPoint x="640" y="220" as="sourcePoint"/><mxPoint x="1040" y="220" as="targetPoint"/></mxGeometry></mxCell></root></mxGraphModel></diagram></mxfile>